<?xml version="1.0" encoding="utf-8"?>
<!-- Generator: Adobe Illustrator 24.2.1, SVG Export Plug-In . SVG Version: 6.00 Build 0)  -->
<svg version="1.1" id="Layer_1" xmlns="http://www.w3.org/2000/svg" xmlns:xlink="http://www.w3.org/1999/xlink" x="0px" y="0px"
	 viewBox="0 0 595.28 841.89" style="enable-background:new 0 0 595.28 841.89;" xml:space="preserve">
<style type="text/css">
	.st0{fill:none;stroke:#000000;stroke-miterlimit:10;}
	.st1{fill:none;stroke:#ED1C24;stroke-miterlimit:10;}
	.st2{fill:none;stroke:#F7941D;stroke-miterlimit:10;}
	.st3{fill:#F7941D;}
	.st4{fill:none;stroke:#006838;stroke-miterlimit:10;}
	.st5{fill:#006838;}
	.st6{fill:none;stroke:#2E3192;stroke-miterlimit:10;}
	.st7{fill:#2E3192;}
	.st8{font-family:'TimesNewRomanPSMT';}
	.st9{font-size:21px;}
	.st10{fill:#BE1E2D;}
	.st11{fill:none;}
</style>
<circle class="st0" cx="54.78" cy="362.67" r="44.67"/>
<circle class="st0" cx="387.44" cy="362.67" r="44.67"/>
<g>
	<g>
		<line class="st0" x1="-79.67" y1="362.67" x2="1.96" y2="362.67"/>
		<g>
			<path d="M0.16,362.67l-2.19-3.6l0.12-0.08l5.88,2.33c2.05,0.45,4.09,0.9,6.14,1.35c-2.05,0.45-4.09,0.9-6.14,1.35l-5.88,2.33
				l-0.12-0.06L0.16,362.67z"/>
		</g>
	</g>
</g>
<line class="st1" x1="99.44" y1="362.67" x2="220.78" y2="362.67"/>
<g>
	<g>
		<line class="st2" x1="220.78" y1="362.67" x2="334.63" y2="362.67"/>
		<g>
			<path class="st3" d="M332.83,362.67l-2.19-3.6l0.12-0.08l5.88,2.33c2.05,0.45,4.09,0.9,6.14,1.35c-2.05,0.45-4.09,0.9-6.14,1.35
				l-5.88,2.33l-0.12-0.06L332.83,362.67z"/>
		</g>
	</g>
</g>
<g>
	<g>
		<line class="st4" x1="432.11" y1="362.67" x2="515.74" y2="362.67"/>
		<g>
			<path class="st5" d="M513.94,362.67l-2.19-3.6l0.12-0.08l5.88,2.33c2.05,0.45,4.09,0.9,6.14,1.35c-2.05,0.45-4.09,0.9-6.14,1.35
				l-5.88,2.33l-0.12-0.06L513.94,362.67z"/>
		</g>
	</g>
</g>
<line class="st6" x1="-10.33" y1="456.67" x2="25.57" y2="396.44"/>
<line class="st6" x1="315.93" y1="451.06" x2="351.82" y2="390.83"/>
<text transform="matrix(1 0 0 1 -149.0002 367.7776)"><tspan x="0" y="0" class="st8 st9">x</tspan><tspan x="10.5" y="6" class="st8 st9">₁</tspan><tspan x="16.8" y="0" class="st8 st9">=0.1</tspan></text>
<text transform="matrix(1 0 0 1 -41.0411 483.6177)"><tspan x="0" y="0" class="st7 st8 st9">b</tspan><tspan x="10.5" y="6" class="st7 st8 st9">₁</tspan><tspan x="16.8" y="0" class="st7 st8 st9">=0.4</tspan></text>
<text transform="matrix(1 0 0 1 -67.93 349.3954)"><tspan x="0" y="0" class="st8 st9">w</tspan><tspan x="15.17" y="6" class="st8 st9">₁</tspan><tspan x="21.46" y="0" class="st8 st9">=0.15</tspan></text>
<text transform="matrix(1 0 0 1 46.7367 365.778)"><tspan x="0" y="0" class="st8 st9">z</tspan><tspan x="9.32" y="6" class="st8 st9">₁</tspan></text>
<text transform="matrix(1 0 0 1 146.5145 349.3958)"><tspan x="0" y="0" class="st10 st8 st9">a</tspan><tspan x="9.32" y="6" class="st10 st8 st9">₁</tspan></text>
<text transform="matrix(1 0 0 1 253.1808 349.3962)"><tspan x="0" y="0" class="st3 st8 st9">w</tspan><tspan x="15.17" y="6" class="st3 st8 st9">₁</tspan><tspan x="21.46" y="0" class="st3 st8 st9">=0.45</tspan></text>
<text transform="matrix(1 0 0 1 382.9999 365.778)"><tspan x="0" y="0" class="st8 st9">z</tspan><tspan x="9.32" y="6" class="st8 st9">2</tspan></text>
<text transform="matrix(1 0 0 1 281.778 473.8397)"><tspan x="0" y="0" class="st7 st8 st9">b</tspan><tspan x="10.5" y="6" class="st7 st8 st9">2</tspan><tspan x="16.63" y="0" class="st7 st8 st9">=0.65</tspan></text>
<rect x="299" y="480.67" class="st11" width="2.67" height="0"/>
<text transform="matrix(1 0 0 1 486.1507 344.9506)"><tspan x="0" y="0" class="st5 st8 st9">a</tspan><tspan x="9.32" y="6" class="st5 st8 st9">2</tspan></text>
</svg>
